<?xml version="1.0" encoding="UTF-8" standalone="no"?><svg xmlns="http://www.w3.org/2000/svg" xmlns:xlink="http://www.w3.org/1999/xlink" contentStyleType="text/css" height="522px" preserveAspectRatio="none" style="width:370px;height:522px;background:#FFFFFF;" version="1.1" viewBox="0 0 370 522" width="370px" zoomAndPan="magnify"><defs/><g><ellipse cx="195" cy="20" fill="#222222" rx="10" ry="10" style="stroke:#222222;stroke-width:1.0;"/><rect fill="#F1F1F1" height="35.0938" rx="12.5" ry="12.5" style="stroke:#181818;stroke-width:0.5;" width="218" x="86" y="50"/><text fill="#000000" font-family="sans-serif" font-size="12" lengthAdjust="spacing" textLength="198" x="96" y="72.457">Inplace upgrade extension webhook</text><rect fill="#F1F1F1" height="35.0938" rx="12.5" ry="12.5" style="stroke:#181818;stroke-width:0.5;" width="215" x="87.5" y="105.0938"/><text fill="#000000" font-family="sans-serif" font-size="12" lengthAdjust="spacing" textLength="195" x="97.5" y="127.5508">ExternalUpgradeRequest get called</text><rect fill="#F1F1F1" height="35.0938" rx="12.5" ry="12.5" style="stroke:#181818;stroke-width:0.5;" width="174" x="108" y="212.7773"/><text fill="#000000" font-family="sans-serif" font-size="12" lengthAdjust="spacing" textLength="154" x="118" y="235.2344">Abort ongoing UpgradeTask</text><polygon fill="#F1F1F1" points="108.5,160.1875,281.5,160.1875,293.5,174.0234,281.5,187.8594,108.5,187.8594,96.5,174.0234,108.5,160.1875" style="stroke:#181818;stroke-width:0.5;"/><text fill="#000000" font-family="sans-serif" font-size="11" lengthAdjust="spacing" textLength="18" x="199" y="199.2783">yes</text><text fill="#000000" font-family="sans-serif" font-size="11" lengthAdjust="spacing" textLength="161" x="108.5" y="171.6064">Is there ongoing UpgradeTask for</text><text fill="#000000" font-family="sans-serif" font-size="11" lengthAdjust="spacing" textLength="173" x="108.5" y="185.4424">same MachineDeployment/CP exists</text><text fill="#000000" font-family="sans-serif" font-size="11" lengthAdjust="spacing" textLength="12" x="293.5" y="171.6064">no</text><polygon fill="#F1F1F1" points="195,267.8711,207,279.8711,195,291.8711,183,279.8711,195,267.8711" style="stroke:#181818;stroke-width:0.5;"/><polygon fill="#F1F1F1" points="111,311.8711,279,311.8711,291,325.707,279,339.543,111,339.543,99,325.707,111,311.8711" style="stroke:#181818;stroke-width:0.5;"/><text fill="#000000" font-family="sans-serif" font-size="11" lengthAdjust="spacing" textLength="150" x="111" y="323.29">Verify request and determine if</text><text fill="#000000" font-family="sans-serif" font-size="11" lengthAdjust="spacing" textLength="168" x="111" y="337.126">extension able to handle changes?</text><text fill="#000000" font-family="sans-serif" font-size="11" lengthAdjust="spacing" textLength="18" x="81" y="323.29">yes</text><text fill="#000000" font-family="sans-serif" font-size="11" lengthAdjust="spacing" textLength="12" x="291" y="323.29">no</text><rect fill="#F1F1F1" height="35.0938" rx="12.5" ry="12.5" style="stroke:#181818;stroke-width:0.5;" width="156" x="11" y="349.543"/><text fill="#000000" font-family="sans-serif" font-size="12" lengthAdjust="spacing" textLength="136" x="21" y="372">Create UpgradeTask CR</text><rect fill="#F1F1F1" height="35.0938" rx="12.5" ry="12.5" style="stroke:#181818;stroke-width:0.5;" width="114" x="32" y="404.6367"/><text fill="#000000" font-family="sans-serif" font-size="12" lengthAdjust="spacing" textLength="51" x="42" y="427.0938">Respond</text><text fill="#000000" font-family="sans-serif" font-size="12" font-weight="bold" lengthAdjust="spacing" textLength="40" x="96" y="427.0938">Accept</text><rect fill="#F1F1F1" height="35.0938" rx="12.5" ry="12.5" style="stroke:#181818;stroke-width:0.5;" width="116" x="243" y="349.543"/><text fill="#000000" font-family="sans-serif" font-size="12" lengthAdjust="spacing" textLength="51" x="253" y="372">Respond</text><text fill="#000000" font-family="sans-serif" font-size="12" font-weight="bold" lengthAdjust="spacing" textLength="42" x="307" y="372">Decline</text><polygon fill="#F1F1F1" points="195,445.7305,207,457.7305,195,469.7305,183,457.7305,195,445.7305" style="stroke:#181818;stroke-width:0.5;"/><ellipse cx="195" cy="500.7305" fill="none" rx="11" ry="11" style="stroke:#222222;stroke-width:1.0;"/><ellipse cx="195" cy="500.7305" fill="#222222" rx="6" ry="6" style="stroke:#111111;stroke-width:1.0;"/><line style="stroke:#181818;stroke-width:1.0;" x1="195" x2="195" y1="30" y2="50"/><polygon fill="#181818" points="191,40,195,50,199,40,195,44" style="stroke:#181818;stroke-width:1.0;"/><line style="stroke:#181818;stroke-width:1.0;" x1="195" x2="195" y1="85.0938" y2="105.0938"/><polygon fill="#181818" points="191,95.0938,195,105.0938,199,95.0938,195,99.0938" style="stroke:#181818;stroke-width:1.0;"/><line style="stroke:#181818;stroke-width:1.0;" x1="195" x2="195" y1="187.8594" y2="212.7773"/><polygon fill="#181818" points="191,202.7773,195,212.7773,199,202.7773,195,206.7773" style="stroke:#181818;stroke-width:1.0;"/><line style="stroke:#181818;stroke-width:1.0;" x1="293.5" x2="305.5" y1="174.0234" y2="174.0234"/><polygon fill="#181818" points="301.5,219.4063,305.5,229.4063,309.5,219.4063,305.5,223.4063" style="stroke:#181818;stroke-width:1.0;"/><line style="stroke:#181818;stroke-width:1.0;" x1="305.5" x2="305.5" y1="174.0234" y2="279.8711"/><line style="stroke:#181818;stroke-width:1.0;" x1="305.5" x2="207" y1="279.8711" y2="279.8711"/><polygon fill="#181818" points="217,275.8711,207,279.8711,217,283.8711,213,279.8711" style="stroke:#181818;stroke-width:1.0;"/><line style="stroke:#181818;stroke-width:1.0;" x1="195" x2="195" y1="247.8711" y2="267.8711"/><polygon fill="#181818" points="191,257.8711,195,267.8711,199,257.8711,195,261.8711" style="stroke:#181818;stroke-width:1.0;"/><line style="stroke:#181818;stroke-width:1.0;" x1="195" x2="195" y1="140.1875" y2="160.1875"/><polygon fill="#181818" points="191,150.1875,195,160.1875,199,150.1875,195,154.1875" style="stroke:#181818;stroke-width:1.0;"/><line style="stroke:#181818;stroke-width:1.0;" x1="89" x2="89" y1="384.6367" y2="404.6367"/><polygon fill="#181818" points="85,394.6367,89,404.6367,93,394.6367,89,398.6367" style="stroke:#181818;stroke-width:1.0;"/><line style="stroke:#181818;stroke-width:1.0;" x1="99" x2="89" y1="325.707" y2="325.707"/><line style="stroke:#181818;stroke-width:1.0;" x1="89" x2="89" y1="325.707" y2="349.543"/><polygon fill="#181818" points="85,339.543,89,349.543,93,339.543,89,343.543" style="stroke:#181818;stroke-width:1.0;"/><line style="stroke:#181818;stroke-width:1.0;" x1="291" x2="301" y1="325.707" y2="325.707"/><line style="stroke:#181818;stroke-width:1.0;" x1="301" x2="301" y1="325.707" y2="349.543"/><polygon fill="#181818" points="297,339.543,301,349.543,305,339.543,301,343.543" style="stroke:#181818;stroke-width:1.0;"/><line style="stroke:#181818;stroke-width:1.0;" x1="89" x2="89" y1="439.7305" y2="457.7305"/><line style="stroke:#181818;stroke-width:1.0;" x1="89" x2="183" y1="457.7305" y2="457.7305"/><polygon fill="#181818" points="173,453.7305,183,457.7305,173,461.7305,177,457.7305" style="stroke:#181818;stroke-width:1.0;"/><line style="stroke:#181818;stroke-width:1.0;" x1="301" x2="301" y1="384.6367" y2="457.7305"/><line style="stroke:#181818;stroke-width:1.0;" x1="301" x2="207" y1="457.7305" y2="457.7305"/><polygon fill="#181818" points="217,453.7305,207,457.7305,217,461.7305,213,457.7305" style="stroke:#181818;stroke-width:1.0;"/><line style="stroke:#181818;stroke-width:1.0;" x1="195" x2="195" y1="291.8711" y2="311.8711"/><polygon fill="#181818" points="191,301.8711,195,311.8711,199,301.8711,195,305.8711" style="stroke:#181818;stroke-width:1.0;"/><line style="stroke:#181818;stroke-width:1.0;" x1="195" x2="195" y1="469.7305" y2="489.7305"/><polygon fill="#181818" points="191,479.7305,195,489.7305,199,479.7305,195,483.7305" style="stroke:#181818;stroke-width:1.0;"/><!--MD5=[a9c3796748004c7b2a0fb5cb0c919fc2]
@startuml
start
:Inplace upgrade extension webhook;
:ExternalUpgradeRequest get called;
if (Is there ongoing UpgradeTask for 
same MachineDeployment/CP exists) then (yes)
    :Abort ongoing UpgradeTask;
else (no)
endif
if (Verify request and determine if
extension able to handle changes?) then (yes)
  :Create UpgradeTask CR;
  :Respond **Accept**;
else (no)
  :Respond **Decline**;
endif
stop
@enduml

PlantUML version 1.2022.7(Tue Aug 23 01:01:30 CST 2022)
(GPL source distribution)
Java Runtime: OpenJDK Runtime Environment
JVM: OpenJDK 64-Bit Server VM
Default Encoding: Cp1252
Language: en
Country: US
--></g></svg>